<mxfile host="app.diagrams.net" agent="Mozilla/5.0 (Macintosh; Intel Mac OS X 10_15_7) AppleWebKit/537.36 (KHTML, like Gecko) Chrome/127.0.0.0 Safari/537.36" version="24.7.7">
  <diagram name="第 1 页" id="uOS4_HxkIQ4ebvURS76N">
    <mxGraphModel dx="1242" dy="785" grid="1" gridSize="10" guides="1" tooltips="1" connect="1" arrows="1" fold="1" page="1" pageScale="1" pageWidth="827" pageHeight="1169" math="0" shadow="0">
      <root>
        <mxCell id="0" />
        <mxCell id="1" parent="0" />
        <mxCell id="gIWV-dX7noA8bB3V8KqC-68" value="" style="whiteSpace=wrap;html=1;" vertex="1" parent="1">
          <mxGeometry x="230" y="1270" width="700" height="110" as="geometry" />
        </mxCell>
        <mxCell id="gIWV-dX7noA8bB3V8KqC-54" value="" style="whiteSpace=wrap;html=1;" vertex="1" parent="1">
          <mxGeometry x="520" y="1160" width="270" height="80" as="geometry" />
        </mxCell>
        <mxCell id="gIWV-dX7noA8bB3V8KqC-52" value="" style="whiteSpace=wrap;html=1;" vertex="1" parent="1">
          <mxGeometry x="100" y="1160" width="260" height="80" as="geometry" />
        </mxCell>
        <mxCell id="gIWV-dX7noA8bB3V8KqC-39" value="" style="whiteSpace=wrap;html=1;" vertex="1" parent="1">
          <mxGeometry x="375" y="990" width="415" height="80" as="geometry" />
        </mxCell>
        <mxCell id="gIWV-dX7noA8bB3V8KqC-37" value="" style="whiteSpace=wrap;html=1;" vertex="1" parent="1">
          <mxGeometry x="105" y="990" width="255" height="80" as="geometry" />
        </mxCell>
        <mxCell id="gIWV-dX7noA8bB3V8KqC-24" value="" style="whiteSpace=wrap;html=1;" vertex="1" parent="1">
          <mxGeometry x="110" y="850" width="710" height="100" as="geometry" />
        </mxCell>
        <mxCell id="rlgQh58dtwE45fqojzhO-15" value="" style="whiteSpace=wrap;html=1;fillColor=#f5f5f5;fontColor=#333333;strokeColor=#666666;" parent="1" vertex="1">
          <mxGeometry x="110" y="80" width="910" height="520" as="geometry" />
        </mxCell>
        <mxCell id="DMyuqR6m4bUcxvvGwZXB-3" value="" style="whiteSpace=wrap;html=1;fillColor=#ffe6cc;strokeColor=#d79b00;" parent="1" vertex="1">
          <mxGeometry x="120" y="160" width="120" height="60" as="geometry" />
        </mxCell>
        <mxCell id="DMyuqR6m4bUcxvvGwZXB-4" value="" style="whiteSpace=wrap;html=1;fillColor=#ffe6cc;strokeColor=#d79b00;" parent="1" vertex="1">
          <mxGeometry x="120" y="250" width="120" height="60" as="geometry" />
        </mxCell>
        <mxCell id="DMyuqR6m4bUcxvvGwZXB-5" value="" style="whiteSpace=wrap;html=1;fillColor=#ffe6cc;strokeColor=#d79b00;" parent="1" vertex="1">
          <mxGeometry x="120" y="340" width="120" height="60" as="geometry" />
        </mxCell>
        <mxCell id="DMyuqR6m4bUcxvvGwZXB-9" value="" style="shape=cylinder3;whiteSpace=wrap;html=1;boundedLbl=1;backgroundOutline=1;size=15;rotation=90;fillColor=#e1d5e7;strokeColor=#9673a6;" parent="1" vertex="1">
          <mxGeometry x="368" y="140" width="46" height="100" as="geometry" />
        </mxCell>
        <mxCell id="DMyuqR6m4bUcxvvGwZXB-10" value="" style="shape=cylinder3;whiteSpace=wrap;html=1;boundedLbl=1;backgroundOutline=1;size=15;rotation=90;fillColor=#e1d5e7;strokeColor=#9673a6;" parent="1" vertex="1">
          <mxGeometry x="368" y="230" width="46" height="100" as="geometry" />
        </mxCell>
        <mxCell id="DMyuqR6m4bUcxvvGwZXB-11" value="" style="shape=cylinder3;whiteSpace=wrap;html=1;boundedLbl=1;backgroundOutline=1;size=15;rotation=90;fillColor=#e1d5e7;strokeColor=#9673a6;" parent="1" vertex="1">
          <mxGeometry x="368" y="320" width="46" height="100" as="geometry" />
        </mxCell>
        <mxCell id="DMyuqR6m4bUcxvvGwZXB-12" value="" style="shape=cylinder3;whiteSpace=wrap;html=1;boundedLbl=1;backgroundOutline=1;size=15;fillColor=#f8cecc;strokeColor=#b85450;" parent="1" vertex="1">
          <mxGeometry x="550" y="170" width="60" height="80" as="geometry" />
        </mxCell>
        <mxCell id="DMyuqR6m4bUcxvvGwZXB-13" value="" style="shape=cylinder3;whiteSpace=wrap;html=1;boundedLbl=1;backgroundOutline=1;size=15;fillColor=#f8cecc;strokeColor=#b85450;" parent="1" vertex="1">
          <mxGeometry x="550" y="300" width="60" height="80" as="geometry" />
        </mxCell>
        <mxCell id="DMyuqR6m4bUcxvvGwZXB-14" value="" style="whiteSpace=wrap;html=1;fillColor=#dae8fc;strokeColor=#6c8ebf;" parent="1" vertex="1">
          <mxGeometry x="710" y="170" width="70" height="210" as="geometry" />
        </mxCell>
        <mxCell id="DMyuqR6m4bUcxvvGwZXB-16" value="query web" style="whiteSpace=wrap;html=1;fillColor=#d5e8d4;strokeColor=#82b366;" parent="1" vertex="1">
          <mxGeometry x="890" y="170" width="120" height="60" as="geometry" />
        </mxCell>
        <mxCell id="DMyuqR6m4bUcxvvGwZXB-17" value="open api" style="whiteSpace=wrap;html=1;fillColor=#d5e8d4;strokeColor=#82b366;" parent="1" vertex="1">
          <mxGeometry x="890" y="320" width="120" height="60" as="geometry" />
        </mxCell>
        <mxCell id="DMyuqR6m4bUcxvvGwZXB-18" value="" style="endArrow=none;dashed=1;html=1;dashPattern=1 3;strokeWidth=2;rounded=0;" parent="1" edge="1">
          <mxGeometry width="50" height="50" relative="1" as="geometry">
            <mxPoint x="290" y="450" as="sourcePoint" />
            <mxPoint x="290" y="90" as="targetPoint" />
          </mxGeometry>
        </mxCell>
        <mxCell id="DMyuqR6m4bUcxvvGwZXB-19" value="" style="endArrow=none;dashed=1;html=1;dashPattern=1 3;strokeWidth=2;rounded=0;" parent="1" edge="1">
          <mxGeometry width="50" height="50" relative="1" as="geometry">
            <mxPoint x="500" y="450" as="sourcePoint" />
            <mxPoint x="500" y="90" as="targetPoint" />
          </mxGeometry>
        </mxCell>
        <mxCell id="DMyuqR6m4bUcxvvGwZXB-20" value="" style="endArrow=none;dashed=1;html=1;dashPattern=1 3;strokeWidth=2;rounded=0;" parent="1" edge="1">
          <mxGeometry width="50" height="50" relative="1" as="geometry">
            <mxPoint x="660" y="450" as="sourcePoint" />
            <mxPoint x="660" y="90" as="targetPoint" />
          </mxGeometry>
        </mxCell>
        <mxCell id="DMyuqR6m4bUcxvvGwZXB-21" value="" style="endArrow=none;dashed=1;html=1;dashPattern=1 3;strokeWidth=2;rounded=0;" parent="1" edge="1">
          <mxGeometry width="50" height="50" relative="1" as="geometry">
            <mxPoint x="827" y="450" as="sourcePoint" />
            <mxPoint x="827" y="90" as="targetPoint" />
          </mxGeometry>
        </mxCell>
        <mxCell id="rlgQh58dtwE45fqojzhO-1" value="agent" style="whiteSpace=wrap;html=1;fillColor=#60a917;fontColor=#ffffff;strokeColor=#2D7600;" parent="1" vertex="1">
          <mxGeometry x="200" y="200" width="40" height="20" as="geometry" />
        </mxCell>
        <mxCell id="rlgQh58dtwE45fqojzhO-4" value="&lt;font style=&quot;font-size: 20px;&quot;&gt;server&lt;/font&gt;" style="text;html=1;align=center;verticalAlign=middle;resizable=0;points=[];autosize=1;strokeColor=none;fillColor=none;" parent="1" vertex="1">
          <mxGeometry x="140" y="170" width="80" height="40" as="geometry" />
        </mxCell>
        <mxCell id="rlgQh58dtwE45fqojzhO-5" value="agent" style="whiteSpace=wrap;html=1;fillColor=#60a917;fontColor=#ffffff;strokeColor=#2D7600;" parent="1" vertex="1">
          <mxGeometry x="200" y="290" width="40" height="20" as="geometry" />
        </mxCell>
        <mxCell id="rlgQh58dtwE45fqojzhO-6" value="agent" style="whiteSpace=wrap;html=1;fillColor=#60a917;fontColor=#ffffff;strokeColor=#2D7600;" parent="1" vertex="1">
          <mxGeometry x="200" y="380" width="40" height="20" as="geometry" />
        </mxCell>
        <mxCell id="rlgQh58dtwE45fqojzhO-7" value="&lt;font style=&quot;font-size: 20px;&quot;&gt;server&lt;/font&gt;" style="text;html=1;align=center;verticalAlign=middle;resizable=0;points=[];autosize=1;strokeColor=none;fillColor=none;" parent="1" vertex="1">
          <mxGeometry x="140" y="260" width="80" height="40" as="geometry" />
        </mxCell>
        <mxCell id="rlgQh58dtwE45fqojzhO-8" value="&lt;font style=&quot;font-size: 20px;&quot;&gt;server&lt;/font&gt;" style="text;html=1;align=center;verticalAlign=middle;resizable=0;points=[];autosize=1;strokeColor=none;fillColor=none;" parent="1" vertex="1">
          <mxGeometry x="140" y="350" width="80" height="40" as="geometry" />
        </mxCell>
        <mxCell id="rlgQh58dtwE45fqojzhO-9" value="上报通道" style="text;html=1;align=center;verticalAlign=middle;resizable=0;points=[];autosize=1;strokeColor=none;fillColor=none;" parent="1" vertex="1">
          <mxGeometry x="340" y="175" width="70" height="30" as="geometry" />
        </mxCell>
        <mxCell id="rlgQh58dtwE45fqojzhO-10" value="上报通道" style="text;html=1;align=center;verticalAlign=middle;resizable=0;points=[];autosize=1;strokeColor=none;fillColor=none;" parent="1" vertex="1">
          <mxGeometry x="340" y="265" width="70" height="30" as="geometry" />
        </mxCell>
        <mxCell id="rlgQh58dtwE45fqojzhO-11" value="上报通道" style="text;html=1;align=center;verticalAlign=middle;resizable=0;points=[];autosize=1;strokeColor=none;fillColor=none;" parent="1" vertex="1">
          <mxGeometry x="340" y="355" width="70" height="30" as="geometry" />
        </mxCell>
        <mxCell id="rlgQh58dtwE45fqojzhO-12" value="存储集群" style="text;html=1;align=center;verticalAlign=middle;resizable=0;points=[];autosize=1;strokeColor=none;fillColor=none;" parent="1" vertex="1">
          <mxGeometry x="545" y="205" width="70" height="30" as="geometry" />
        </mxCell>
        <mxCell id="rlgQh58dtwE45fqojzhO-13" value="存储集群" style="text;html=1;align=center;verticalAlign=middle;resizable=0;points=[];autosize=1;strokeColor=none;fillColor=none;" parent="1" vertex="1">
          <mxGeometry x="545" y="335" width="70" height="30" as="geometry" />
        </mxCell>
        <mxCell id="rlgQh58dtwE45fqojzhO-14" value="query proxy" style="text;html=1;align=center;verticalAlign=middle;resizable=0;points=[];autosize=1;strokeColor=none;fillColor=none;" parent="1" vertex="1">
          <mxGeometry x="700" y="260" width="90" height="30" as="geometry" />
        </mxCell>
        <mxCell id="rlgQh58dtwE45fqojzhO-24" value="" style="endArrow=classic;html=1;rounded=0;entryX=0.111;entryY=0.333;entryDx=0;entryDy=0;entryPerimeter=0;exitX=0.929;exitY=0.067;exitDx=0;exitDy=0;exitPerimeter=0;" parent="1" source="rlgQh58dtwE45fqojzhO-12" target="rlgQh58dtwE45fqojzhO-14" edge="1">
          <mxGeometry width="50" height="50" relative="1" as="geometry">
            <mxPoint x="380" y="620" as="sourcePoint" />
            <mxPoint x="430" y="570" as="targetPoint" />
          </mxGeometry>
        </mxCell>
        <mxCell id="rlgQh58dtwE45fqojzhO-25" value="" style="endArrow=classic;html=1;rounded=0;exitX=0.943;exitY=0.3;exitDx=0;exitDy=0;exitPerimeter=0;" parent="1" source="rlgQh58dtwE45fqojzhO-13" edge="1">
          <mxGeometry width="50" height="50" relative="1" as="geometry">
            <mxPoint x="610" y="540" as="sourcePoint" />
            <mxPoint x="710" y="270" as="targetPoint" />
          </mxGeometry>
        </mxCell>
        <mxCell id="rlgQh58dtwE45fqojzhO-26" value="" style="endArrow=classic;html=1;rounded=0;entryX=0.014;entryY=0.433;entryDx=0;entryDy=0;entryPerimeter=0;exitX=1;exitY=0.5;exitDx=0;exitDy=0;" parent="1" source="rlgQh58dtwE45fqojzhO-1" target="rlgQh58dtwE45fqojzhO-9" edge="1">
          <mxGeometry width="50" height="50" relative="1" as="geometry">
            <mxPoint x="240" y="550" as="sourcePoint" />
            <mxPoint x="290" y="500" as="targetPoint" />
          </mxGeometry>
        </mxCell>
        <mxCell id="rlgQh58dtwE45fqojzhO-27" value="" style="endArrow=classic;html=1;rounded=0;entryX=-0.014;entryY=0.6;entryDx=0;entryDy=0;entryPerimeter=0;exitX=1;exitY=0.5;exitDx=0;exitDy=0;" parent="1" source="rlgQh58dtwE45fqojzhO-5" target="rlgQh58dtwE45fqojzhO-10" edge="1">
          <mxGeometry width="50" height="50" relative="1" as="geometry">
            <mxPoint x="200" y="580" as="sourcePoint" />
            <mxPoint x="250" y="530" as="targetPoint" />
          </mxGeometry>
        </mxCell>
        <mxCell id="rlgQh58dtwE45fqojzhO-28" value="" style="endArrow=classic;html=1;rounded=0;entryX=0.5;entryY=1;entryDx=0;entryDy=0;entryPerimeter=0;exitX=1;exitY=0.5;exitDx=0;exitDy=0;" parent="1" source="rlgQh58dtwE45fqojzhO-6" target="DMyuqR6m4bUcxvvGwZXB-11" edge="1">
          <mxGeometry width="50" height="50" relative="1" as="geometry">
            <mxPoint x="170" y="620" as="sourcePoint" />
            <mxPoint x="220" y="570" as="targetPoint" />
          </mxGeometry>
        </mxCell>
        <mxCell id="rlgQh58dtwE45fqojzhO-29" value="" style="endArrow=classic;html=1;rounded=0;entryX=0.029;entryY=0.3;entryDx=0;entryDy=0;entryPerimeter=0;exitX=0.5;exitY=0;exitDx=0;exitDy=0;exitPerimeter=0;" parent="1" source="DMyuqR6m4bUcxvvGwZXB-9" target="rlgQh58dtwE45fqojzhO-12" edge="1">
          <mxGeometry width="50" height="50" relative="1" as="geometry">
            <mxPoint x="310" y="590" as="sourcePoint" />
            <mxPoint x="360" y="540" as="targetPoint" />
          </mxGeometry>
        </mxCell>
        <mxCell id="rlgQh58dtwE45fqojzhO-30" value="" style="endArrow=classic;html=1;rounded=0;exitX=0.5;exitY=0;exitDx=0;exitDy=0;exitPerimeter=0;" parent="1" source="DMyuqR6m4bUcxvvGwZXB-10" edge="1">
          <mxGeometry width="50" height="50" relative="1" as="geometry">
            <mxPoint x="310" y="620" as="sourcePoint" />
            <mxPoint x="544" y="215" as="targetPoint" />
          </mxGeometry>
        </mxCell>
        <mxCell id="rlgQh58dtwE45fqojzhO-31" value="" style="endArrow=classic;html=1;rounded=0;entryX=0.043;entryY=0.4;entryDx=0;entryDy=0;entryPerimeter=0;exitX=0.5;exitY=0;exitDx=0;exitDy=0;exitPerimeter=0;" parent="1" source="DMyuqR6m4bUcxvvGwZXB-11" target="rlgQh58dtwE45fqojzhO-13" edge="1">
          <mxGeometry width="50" height="50" relative="1" as="geometry">
            <mxPoint x="370" y="560" as="sourcePoint" />
            <mxPoint x="420" y="510" as="targetPoint" />
          </mxGeometry>
        </mxCell>
        <mxCell id="rlgQh58dtwE45fqojzhO-32" value="" style="endArrow=classic;html=1;rounded=0;entryX=0;entryY=0.5;entryDx=0;entryDy=0;exitX=0.889;exitY=0.333;exitDx=0;exitDy=0;exitPerimeter=0;" parent="1" source="rlgQh58dtwE45fqojzhO-14" target="DMyuqR6m4bUcxvvGwZXB-16" edge="1">
          <mxGeometry width="50" height="50" relative="1" as="geometry">
            <mxPoint x="710" y="560" as="sourcePoint" />
            <mxPoint x="760" y="510" as="targetPoint" />
          </mxGeometry>
        </mxCell>
        <mxCell id="rlgQh58dtwE45fqojzhO-33" value="" style="endArrow=classic;html=1;rounded=0;entryX=0;entryY=0.5;entryDx=0;entryDy=0;exitX=1;exitY=0.5;exitDx=0;exitDy=0;" parent="1" source="DMyuqR6m4bUcxvvGwZXB-14" target="DMyuqR6m4bUcxvvGwZXB-17" edge="1">
          <mxGeometry width="50" height="50" relative="1" as="geometry">
            <mxPoint x="840" y="570" as="sourcePoint" />
            <mxPoint x="890" y="520" as="targetPoint" />
          </mxGeometry>
        </mxCell>
        <mxCell id="rlgQh58dtwE45fqojzhO-35" value="&lt;font style=&quot;font-size: 20px;&quot;&gt;管控平台&lt;/font&gt;" style="whiteSpace=wrap;html=1;fillColor=#ffe6cc;strokeColor=#d79b00;" parent="1" vertex="1">
          <mxGeometry x="740" y="510" width="120" height="60" as="geometry" />
        </mxCell>
        <mxCell id="rlgQh58dtwE45fqojzhO-39" value="&lt;font style=&quot;font-size: 20px;&quot;&gt;接入平台&lt;/font&gt;" style="whiteSpace=wrap;html=1;fillColor=#ffe6cc;strokeColor=#d79b00;" parent="1" vertex="1">
          <mxGeometry x="310" y="510" width="120" height="60" as="geometry" />
        </mxCell>
        <mxCell id="gIWV-dX7noA8bB3V8KqC-7" style="edgeStyle=orthogonalEdgeStyle;rounded=0;orthogonalLoop=1;jettySize=auto;html=1;exitX=1;exitY=0.5;exitDx=0;exitDy=0;entryX=0;entryY=0.5;entryDx=0;entryDy=0;" edge="1" parent="1" source="gIWV-dX7noA8bB3V8KqC-1" target="gIWV-dX7noA8bB3V8KqC-2">
          <mxGeometry relative="1" as="geometry" />
        </mxCell>
        <mxCell id="gIWV-dX7noA8bB3V8KqC-1" value="原始日志收集" style="whiteSpace=wrap;html=1;" vertex="1" parent="1">
          <mxGeometry x="120" y="760" width="90" height="40" as="geometry" />
        </mxCell>
        <mxCell id="gIWV-dX7noA8bB3V8KqC-8" style="edgeStyle=orthogonalEdgeStyle;rounded=0;orthogonalLoop=1;jettySize=auto;html=1;exitX=1;exitY=0.5;exitDx=0;exitDy=0;entryX=0;entryY=0.5;entryDx=0;entryDy=0;" edge="1" parent="1" source="gIWV-dX7noA8bB3V8KqC-2" target="gIWV-dX7noA8bB3V8KqC-3">
          <mxGeometry relative="1" as="geometry" />
        </mxCell>
        <mxCell id="gIWV-dX7noA8bB3V8KqC-2" value="日志预加工" style="whiteSpace=wrap;html=1;" vertex="1" parent="1">
          <mxGeometry x="260" y="760" width="90" height="40" as="geometry" />
        </mxCell>
        <mxCell id="gIWV-dX7noA8bB3V8KqC-9" style="edgeStyle=orthogonalEdgeStyle;rounded=0;orthogonalLoop=1;jettySize=auto;html=1;exitX=1;exitY=0.5;exitDx=0;exitDy=0;entryX=0;entryY=0.5;entryDx=0;entryDy=0;" edge="1" parent="1" source="gIWV-dX7noA8bB3V8KqC-3" target="gIWV-dX7noA8bB3V8KqC-4">
          <mxGeometry relative="1" as="geometry" />
        </mxCell>
        <mxCell id="gIWV-dX7noA8bB3V8KqC-3" value="日志缓存" style="whiteSpace=wrap;html=1;" vertex="1" parent="1">
          <mxGeometry x="400" y="760" width="90" height="40" as="geometry" />
        </mxCell>
        <mxCell id="gIWV-dX7noA8bB3V8KqC-10" style="edgeStyle=orthogonalEdgeStyle;rounded=0;orthogonalLoop=1;jettySize=auto;html=1;exitX=1;exitY=0.5;exitDx=0;exitDy=0;entryX=0;entryY=0.5;entryDx=0;entryDy=0;" edge="1" parent="1" source="gIWV-dX7noA8bB3V8KqC-4" target="gIWV-dX7noA8bB3V8KqC-5">
          <mxGeometry relative="1" as="geometry" />
        </mxCell>
        <mxCell id="gIWV-dX7noA8bB3V8KqC-4" value="日志存储适配" style="whiteSpace=wrap;html=1;" vertex="1" parent="1">
          <mxGeometry x="545" y="760" width="90" height="40" as="geometry" />
        </mxCell>
        <mxCell id="gIWV-dX7noA8bB3V8KqC-11" style="edgeStyle=orthogonalEdgeStyle;rounded=0;orthogonalLoop=1;jettySize=auto;html=1;exitX=1;exitY=0.5;exitDx=0;exitDy=0;entryX=0;entryY=0.5;entryDx=0;entryDy=0;" edge="1" parent="1" source="gIWV-dX7noA8bB3V8KqC-5" target="gIWV-dX7noA8bB3V8KqC-6">
          <mxGeometry relative="1" as="geometry" />
        </mxCell>
        <mxCell id="gIWV-dX7noA8bB3V8KqC-5" value="存储写入通道" style="whiteSpace=wrap;html=1;" vertex="1" parent="1">
          <mxGeometry x="700" y="760" width="90" height="40" as="geometry" />
        </mxCell>
        <mxCell id="gIWV-dX7noA8bB3V8KqC-6" value="存储" style="whiteSpace=wrap;html=1;" vertex="1" parent="1">
          <mxGeometry x="850" y="760" width="90" height="40" as="geometry" />
        </mxCell>
        <mxCell id="gIWV-dX7noA8bB3V8KqC-12" style="edgeStyle=orthogonalEdgeStyle;rounded=0;orthogonalLoop=1;jettySize=auto;html=1;exitX=1;exitY=0.5;exitDx=0;exitDy=0;entryX=0;entryY=0.5;entryDx=0;entryDy=0;" edge="1" parent="1" source="gIWV-dX7noA8bB3V8KqC-13" target="gIWV-dX7noA8bB3V8KqC-15">
          <mxGeometry relative="1" as="geometry" />
        </mxCell>
        <mxCell id="gIWV-dX7noA8bB3V8KqC-13" value="原始日志收集" style="whiteSpace=wrap;html=1;" vertex="1" parent="1">
          <mxGeometry x="120" y="900" width="90" height="40" as="geometry" />
        </mxCell>
        <mxCell id="gIWV-dX7noA8bB3V8KqC-14" style="edgeStyle=orthogonalEdgeStyle;rounded=0;orthogonalLoop=1;jettySize=auto;html=1;exitX=1;exitY=0.5;exitDx=0;exitDy=0;entryX=0;entryY=0.5;entryDx=0;entryDy=0;" edge="1" parent="1" source="gIWV-dX7noA8bB3V8KqC-15" target="gIWV-dX7noA8bB3V8KqC-17">
          <mxGeometry relative="1" as="geometry" />
        </mxCell>
        <mxCell id="gIWV-dX7noA8bB3V8KqC-15" value="日志预加工" style="whiteSpace=wrap;html=1;" vertex="1" parent="1">
          <mxGeometry x="260" y="900" width="90" height="40" as="geometry" />
        </mxCell>
        <mxCell id="gIWV-dX7noA8bB3V8KqC-16" style="edgeStyle=orthogonalEdgeStyle;rounded=0;orthogonalLoop=1;jettySize=auto;html=1;exitX=1;exitY=0.5;exitDx=0;exitDy=0;entryX=0;entryY=0.5;entryDx=0;entryDy=0;" edge="1" parent="1" source="gIWV-dX7noA8bB3V8KqC-17" target="gIWV-dX7noA8bB3V8KqC-19">
          <mxGeometry relative="1" as="geometry" />
        </mxCell>
        <mxCell id="gIWV-dX7noA8bB3V8KqC-17" value="日志缓存" style="whiteSpace=wrap;html=1;" vertex="1" parent="1">
          <mxGeometry x="400" y="900" width="90" height="40" as="geometry" />
        </mxCell>
        <mxCell id="gIWV-dX7noA8bB3V8KqC-18" style="edgeStyle=orthogonalEdgeStyle;rounded=0;orthogonalLoop=1;jettySize=auto;html=1;exitX=1;exitY=0.5;exitDx=0;exitDy=0;entryX=0;entryY=0.5;entryDx=0;entryDy=0;" edge="1" parent="1" source="gIWV-dX7noA8bB3V8KqC-19" target="gIWV-dX7noA8bB3V8KqC-21">
          <mxGeometry relative="1" as="geometry" />
        </mxCell>
        <mxCell id="gIWV-dX7noA8bB3V8KqC-19" value="日志存储适配" style="whiteSpace=wrap;html=1;" vertex="1" parent="1">
          <mxGeometry x="545" y="900" width="90" height="40" as="geometry" />
        </mxCell>
        <mxCell id="gIWV-dX7noA8bB3V8KqC-20" style="edgeStyle=orthogonalEdgeStyle;rounded=0;orthogonalLoop=1;jettySize=auto;html=1;exitX=1;exitY=0.5;exitDx=0;exitDy=0;entryX=0;entryY=0.5;entryDx=0;entryDy=0;" edge="1" parent="1" source="gIWV-dX7noA8bB3V8KqC-21" target="gIWV-dX7noA8bB3V8KqC-22">
          <mxGeometry relative="1" as="geometry" />
        </mxCell>
        <mxCell id="gIWV-dX7noA8bB3V8KqC-21" value="存储写入通道" style="whiteSpace=wrap;html=1;" vertex="1" parent="1">
          <mxGeometry x="700" y="900" width="90" height="40" as="geometry" />
        </mxCell>
        <mxCell id="gIWV-dX7noA8bB3V8KqC-22" value="存储" style="whiteSpace=wrap;html=1;" vertex="1" parent="1">
          <mxGeometry x="850" y="900" width="90" height="40" as="geometry" />
        </mxCell>
        <mxCell id="gIWV-dX7noA8bB3V8KqC-25" value="server" style="text;html=1;align=center;verticalAlign=middle;resizable=0;points=[];autosize=1;strokeColor=none;fillColor=none;" vertex="1" parent="1">
          <mxGeometry x="460" y="850" width="60" height="30" as="geometry" />
        </mxCell>
        <mxCell id="gIWV-dX7noA8bB3V8KqC-26" style="edgeStyle=orthogonalEdgeStyle;rounded=0;orthogonalLoop=1;jettySize=auto;html=1;exitX=1;exitY=0.5;exitDx=0;exitDy=0;entryX=0;entryY=0.5;entryDx=0;entryDy=0;" edge="1" parent="1" source="gIWV-dX7noA8bB3V8KqC-27" target="gIWV-dX7noA8bB3V8KqC-29">
          <mxGeometry relative="1" as="geometry" />
        </mxCell>
        <mxCell id="gIWV-dX7noA8bB3V8KqC-27" value="原始日志收集" style="whiteSpace=wrap;html=1;" vertex="1" parent="1">
          <mxGeometry x="110" y="1020" width="90" height="40" as="geometry" />
        </mxCell>
        <mxCell id="gIWV-dX7noA8bB3V8KqC-28" style="edgeStyle=orthogonalEdgeStyle;rounded=0;orthogonalLoop=1;jettySize=auto;html=1;exitX=1;exitY=0.5;exitDx=0;exitDy=0;entryX=0;entryY=0.5;entryDx=0;entryDy=0;" edge="1" parent="1" source="gIWV-dX7noA8bB3V8KqC-29" target="gIWV-dX7noA8bB3V8KqC-31">
          <mxGeometry relative="1" as="geometry" />
        </mxCell>
        <mxCell id="gIWV-dX7noA8bB3V8KqC-29" value="日志预加工" style="whiteSpace=wrap;html=1;" vertex="1" parent="1">
          <mxGeometry x="250" y="1020" width="90" height="40" as="geometry" />
        </mxCell>
        <mxCell id="gIWV-dX7noA8bB3V8KqC-30" style="edgeStyle=orthogonalEdgeStyle;rounded=0;orthogonalLoop=1;jettySize=auto;html=1;exitX=1;exitY=0.5;exitDx=0;exitDy=0;entryX=0;entryY=0.5;entryDx=0;entryDy=0;" edge="1" parent="1" source="gIWV-dX7noA8bB3V8KqC-31" target="gIWV-dX7noA8bB3V8KqC-33">
          <mxGeometry relative="1" as="geometry" />
        </mxCell>
        <mxCell id="gIWV-dX7noA8bB3V8KqC-31" value="日志缓存" style="whiteSpace=wrap;html=1;" vertex="1" parent="1">
          <mxGeometry x="390" y="1020" width="90" height="40" as="geometry" />
        </mxCell>
        <mxCell id="gIWV-dX7noA8bB3V8KqC-32" style="edgeStyle=orthogonalEdgeStyle;rounded=0;orthogonalLoop=1;jettySize=auto;html=1;exitX=1;exitY=0.5;exitDx=0;exitDy=0;entryX=0;entryY=0.5;entryDx=0;entryDy=0;" edge="1" parent="1" source="gIWV-dX7noA8bB3V8KqC-33" target="gIWV-dX7noA8bB3V8KqC-35">
          <mxGeometry relative="1" as="geometry" />
        </mxCell>
        <mxCell id="gIWV-dX7noA8bB3V8KqC-33" value="日志存储适配" style="whiteSpace=wrap;html=1;" vertex="1" parent="1">
          <mxGeometry x="535" y="1020" width="90" height="40" as="geometry" />
        </mxCell>
        <mxCell id="gIWV-dX7noA8bB3V8KqC-34" style="edgeStyle=orthogonalEdgeStyle;rounded=0;orthogonalLoop=1;jettySize=auto;html=1;exitX=1;exitY=0.5;exitDx=0;exitDy=0;entryX=0;entryY=0.5;entryDx=0;entryDy=0;" edge="1" parent="1" source="gIWV-dX7noA8bB3V8KqC-35" target="gIWV-dX7noA8bB3V8KqC-36">
          <mxGeometry relative="1" as="geometry" />
        </mxCell>
        <mxCell id="gIWV-dX7noA8bB3V8KqC-35" value="存储写入通道" style="whiteSpace=wrap;html=1;" vertex="1" parent="1">
          <mxGeometry x="690" y="1020" width="90" height="40" as="geometry" />
        </mxCell>
        <mxCell id="gIWV-dX7noA8bB3V8KqC-36" value="存储" style="whiteSpace=wrap;html=1;" vertex="1" parent="1">
          <mxGeometry x="840" y="1020" width="90" height="40" as="geometry" />
        </mxCell>
        <mxCell id="gIWV-dX7noA8bB3V8KqC-38" value="server" style="text;html=1;align=center;verticalAlign=middle;resizable=0;points=[];autosize=1;strokeColor=none;fillColor=none;" vertex="1" parent="1">
          <mxGeometry x="200" y="990" width="60" height="30" as="geometry" />
        </mxCell>
        <mxCell id="gIWV-dX7noA8bB3V8KqC-40" value="写入通道" style="text;html=1;align=center;verticalAlign=middle;resizable=0;points=[];autosize=1;strokeColor=none;fillColor=none;" vertex="1" parent="1">
          <mxGeometry x="535" y="990" width="70" height="30" as="geometry" />
        </mxCell>
        <mxCell id="gIWV-dX7noA8bB3V8KqC-41" style="edgeStyle=orthogonalEdgeStyle;rounded=0;orthogonalLoop=1;jettySize=auto;html=1;exitX=1;exitY=0.5;exitDx=0;exitDy=0;entryX=0;entryY=0.5;entryDx=0;entryDy=0;" edge="1" parent="1" source="gIWV-dX7noA8bB3V8KqC-42" target="gIWV-dX7noA8bB3V8KqC-44">
          <mxGeometry relative="1" as="geometry" />
        </mxCell>
        <mxCell id="gIWV-dX7noA8bB3V8KqC-42" value="原始日志收集" style="whiteSpace=wrap;html=1;" vertex="1" parent="1">
          <mxGeometry x="105" y="1190" width="90" height="40" as="geometry" />
        </mxCell>
        <mxCell id="gIWV-dX7noA8bB3V8KqC-43" style="edgeStyle=orthogonalEdgeStyle;rounded=0;orthogonalLoop=1;jettySize=auto;html=1;exitX=1;exitY=0.5;exitDx=0;exitDy=0;entryX=0;entryY=0.5;entryDx=0;entryDy=0;" edge="1" parent="1" source="gIWV-dX7noA8bB3V8KqC-44" target="gIWV-dX7noA8bB3V8KqC-46">
          <mxGeometry relative="1" as="geometry" />
        </mxCell>
        <mxCell id="gIWV-dX7noA8bB3V8KqC-44" value="日志预加工" style="whiteSpace=wrap;html=1;" vertex="1" parent="1">
          <mxGeometry x="245" y="1190" width="90" height="40" as="geometry" />
        </mxCell>
        <mxCell id="gIWV-dX7noA8bB3V8KqC-45" style="edgeStyle=orthogonalEdgeStyle;rounded=0;orthogonalLoop=1;jettySize=auto;html=1;exitX=1;exitY=0.5;exitDx=0;exitDy=0;entryX=0;entryY=0.5;entryDx=0;entryDy=0;" edge="1" parent="1" source="gIWV-dX7noA8bB3V8KqC-46" target="gIWV-dX7noA8bB3V8KqC-48">
          <mxGeometry relative="1" as="geometry" />
        </mxCell>
        <mxCell id="gIWV-dX7noA8bB3V8KqC-46" value="日志缓存" style="whiteSpace=wrap;html=1;" vertex="1" parent="1">
          <mxGeometry x="385" y="1190" width="90" height="40" as="geometry" />
        </mxCell>
        <mxCell id="gIWV-dX7noA8bB3V8KqC-47" style="edgeStyle=orthogonalEdgeStyle;rounded=0;orthogonalLoop=1;jettySize=auto;html=1;exitX=1;exitY=0.5;exitDx=0;exitDy=0;entryX=0;entryY=0.5;entryDx=0;entryDy=0;" edge="1" parent="1" source="gIWV-dX7noA8bB3V8KqC-48" target="gIWV-dX7noA8bB3V8KqC-50">
          <mxGeometry relative="1" as="geometry" />
        </mxCell>
        <mxCell id="gIWV-dX7noA8bB3V8KqC-48" value="日志存储适配" style="whiteSpace=wrap;html=1;" vertex="1" parent="1">
          <mxGeometry x="530" y="1190" width="90" height="40" as="geometry" />
        </mxCell>
        <mxCell id="gIWV-dX7noA8bB3V8KqC-49" style="edgeStyle=orthogonalEdgeStyle;rounded=0;orthogonalLoop=1;jettySize=auto;html=1;exitX=1;exitY=0.5;exitDx=0;exitDy=0;entryX=0;entryY=0.5;entryDx=0;entryDy=0;" edge="1" parent="1" source="gIWV-dX7noA8bB3V8KqC-50" target="gIWV-dX7noA8bB3V8KqC-51">
          <mxGeometry relative="1" as="geometry" />
        </mxCell>
        <mxCell id="gIWV-dX7noA8bB3V8KqC-50" value="存储写入通道" style="whiteSpace=wrap;html=1;" vertex="1" parent="1">
          <mxGeometry x="685" y="1190" width="90" height="40" as="geometry" />
        </mxCell>
        <mxCell id="gIWV-dX7noA8bB3V8KqC-51" value="存储" style="whiteSpace=wrap;html=1;" vertex="1" parent="1">
          <mxGeometry x="835" y="1190" width="90" height="40" as="geometry" />
        </mxCell>
        <mxCell id="gIWV-dX7noA8bB3V8KqC-53" value="server" style="text;html=1;align=center;verticalAlign=middle;resizable=0;points=[];autosize=1;strokeColor=none;fillColor=none;" vertex="1" parent="1">
          <mxGeometry x="195" y="1160" width="60" height="30" as="geometry" />
        </mxCell>
        <mxCell id="gIWV-dX7noA8bB3V8KqC-56" value="写入通道" style="text;html=1;align=center;verticalAlign=middle;resizable=0;points=[];autosize=1;strokeColor=none;fillColor=none;" vertex="1" parent="1">
          <mxGeometry x="620" y="1160" width="70" height="30" as="geometry" />
        </mxCell>
        <mxCell id="gIWV-dX7noA8bB3V8KqC-57" style="edgeStyle=orthogonalEdgeStyle;rounded=0;orthogonalLoop=1;jettySize=auto;html=1;exitX=1;exitY=0.5;exitDx=0;exitDy=0;entryX=0;entryY=0.5;entryDx=0;entryDy=0;" edge="1" parent="1" source="gIWV-dX7noA8bB3V8KqC-58" target="gIWV-dX7noA8bB3V8KqC-60">
          <mxGeometry relative="1" as="geometry" />
        </mxCell>
        <mxCell id="gIWV-dX7noA8bB3V8KqC-58" value="原始日志收集" style="whiteSpace=wrap;html=1;" vertex="1" parent="1">
          <mxGeometry x="100" y="1320" width="90" height="40" as="geometry" />
        </mxCell>
        <mxCell id="gIWV-dX7noA8bB3V8KqC-59" style="edgeStyle=orthogonalEdgeStyle;rounded=0;orthogonalLoop=1;jettySize=auto;html=1;exitX=1;exitY=0.5;exitDx=0;exitDy=0;entryX=0;entryY=0.5;entryDx=0;entryDy=0;" edge="1" parent="1" source="gIWV-dX7noA8bB3V8KqC-60" target="gIWV-dX7noA8bB3V8KqC-62">
          <mxGeometry relative="1" as="geometry" />
        </mxCell>
        <mxCell id="gIWV-dX7noA8bB3V8KqC-60" value="日志预加工" style="whiteSpace=wrap;html=1;" vertex="1" parent="1">
          <mxGeometry x="240" y="1320" width="90" height="40" as="geometry" />
        </mxCell>
        <mxCell id="gIWV-dX7noA8bB3V8KqC-61" style="edgeStyle=orthogonalEdgeStyle;rounded=0;orthogonalLoop=1;jettySize=auto;html=1;exitX=1;exitY=0.5;exitDx=0;exitDy=0;entryX=0;entryY=0.5;entryDx=0;entryDy=0;" edge="1" parent="1" source="gIWV-dX7noA8bB3V8KqC-62" target="gIWV-dX7noA8bB3V8KqC-64">
          <mxGeometry relative="1" as="geometry" />
        </mxCell>
        <mxCell id="gIWV-dX7noA8bB3V8KqC-62" value="日志缓存" style="whiteSpace=wrap;html=1;" vertex="1" parent="1">
          <mxGeometry x="380" y="1320" width="90" height="40" as="geometry" />
        </mxCell>
        <mxCell id="gIWV-dX7noA8bB3V8KqC-63" style="edgeStyle=orthogonalEdgeStyle;rounded=0;orthogonalLoop=1;jettySize=auto;html=1;exitX=1;exitY=0.5;exitDx=0;exitDy=0;entryX=0;entryY=0.5;entryDx=0;entryDy=0;" edge="1" parent="1" source="gIWV-dX7noA8bB3V8KqC-64" target="gIWV-dX7noA8bB3V8KqC-66">
          <mxGeometry relative="1" as="geometry" />
        </mxCell>
        <mxCell id="gIWV-dX7noA8bB3V8KqC-64" value="日志存储适配" style="whiteSpace=wrap;html=1;" vertex="1" parent="1">
          <mxGeometry x="525" y="1320" width="90" height="40" as="geometry" />
        </mxCell>
        <mxCell id="gIWV-dX7noA8bB3V8KqC-65" style="edgeStyle=orthogonalEdgeStyle;rounded=0;orthogonalLoop=1;jettySize=auto;html=1;exitX=1;exitY=0.5;exitDx=0;exitDy=0;entryX=0;entryY=0.5;entryDx=0;entryDy=0;" edge="1" parent="1" source="gIWV-dX7noA8bB3V8KqC-66" target="gIWV-dX7noA8bB3V8KqC-67">
          <mxGeometry relative="1" as="geometry" />
        </mxCell>
        <mxCell id="gIWV-dX7noA8bB3V8KqC-66" value="存储写入通道" style="whiteSpace=wrap;html=1;" vertex="1" parent="1">
          <mxGeometry x="680" y="1320" width="90" height="40" as="geometry" />
        </mxCell>
        <mxCell id="gIWV-dX7noA8bB3V8KqC-67" value="存储" style="whiteSpace=wrap;html=1;" vertex="1" parent="1">
          <mxGeometry x="830" y="1320" width="90" height="40" as="geometry" />
        </mxCell>
        <mxCell id="gIWV-dX7noA8bB3V8KqC-69" value="写入适配+存储" style="text;html=1;align=center;verticalAlign=middle;resizable=0;points=[];autosize=1;strokeColor=none;fillColor=none;" vertex="1" parent="1">
          <mxGeometry x="570" y="1270" width="100" height="30" as="geometry" />
        </mxCell>
      </root>
    </mxGraphModel>
  </diagram>
</mxfile>
